<?xml version="1.0" encoding="UTF-8"?>
<svg id="Layer_1" data-name="Layer 1" xmlns="http://www.w3.org/2000/svg" width="1291.16mm" height="912.32mm" viewBox="0 0 3659.97 2586.11">
  <path d="M2056.89,1290.01c-.61-14.13-7.34-23.75-9.88-27.04C1839.29,999.22,1078.5,33.65,1051.89,11.01,1037.95-.85,1024.89.01,1024.89.01c-12.67.96-20.35,9.16-22,11C671.97,429.87,341.05,848.73,10.13,1267.59c-2.32,2.39-8.92,9.8-9.98,21.19-1.66,17.71,11.49,29.43,12.9,30.65,331.95,419.53,663.89,839.06,995.84,1258.59,1.38,1.28,10.04,9.04,23,8,12.56-1,19.77-9.5,21-11,332.01-418.84,664.03-837.69,996.04-1256.53,2.28-3.42,8.59-13.85,7.96-28.47ZM1026.96,48.52c4.7,0,8.5,3.81,8.5,8.5s-3.81,8.5-8.5,8.5-8.5-3.81-8.5-8.5,3.81-8.5,8.5-8.5ZM679.9,688.23c1.36-2.91,4.8-3.37,6.86-3.64.29-.04.56-.07.8-.11l.4-.03c224.54-.22,454.71.8,657.79,1.7l.33.02c1.37.19,3.07.15,4.87.1,4.5-.12,9.61-.25,12.62,3.32l.65.77-.07,1.01c-.03,1.93,2.73,20.42,5.65,39.99,2.82,18.85,6.01,40.23,8.33,57.42,4.19,31,3.42,31.67,2.03,32.88l-1.16,1.01-1.42-.58c-7.09-2.87-12.01-8.97-16.77-14.88-2.13-2.64-4.14-5.13-6.26-7.24l-.14-.15c-2.66-3.13-5.25-6.19-7.78-9.2-17.75-21.05-33.07-39.23-56.15-54.5-48.16-32.94-99.14-35.03-155.99-34.31-3.39.04-27.22-.08-74.89-.04-27.09.02-49.26.08-63.79.12,0,0,0,0,0,0-104.66-.57-209.32-1.14-313.98-1.71l-.75-1.01c-.82-1.11-2.2-3.43-2.17-6.55.01-1.53.35-3.02,1.01-4.43ZM1161.28,860.11c-.03,81.4-.06,162.79-.09,244.19-.16,1.53-.94,2.72-2,3-.13.03-.54.14-1,0-1.08-.32-1.56-1.64-2-3-.48-1.49-1.06-3.49-1.58-5.94-.1-.49-.24-1.21-.42-2.06-3.41-16.31-11.13-45.11-31-72.61-15.88-21.99-41.08-35.08-54.6-38.17-9.37-2.14-18.67-2.39-24.82-2.56-6.29-.17-8.89-.24-9.02-3.12-.14-2.94,2.41-3.2,9.21-3.88,5.69-.57,14.28-1.43,22.87-3.69,35.69-9.38,63.72-41.35,74.67-67.07,7.13-16.75,10.57-32.83,10.61-32.99.81-3.83,1.42-7.41,1.92-10.29.37-2.15.66-3.85.93-5.09.3-1.39.86-3.96,3.33-3.8,0,0,.66.04,1.32.42.98.57,1.78,3.18,1.67,6.68ZM903.37,874.05c.11,217.77.17,398.34-.26,402.03l-.1.89c-.18.41-.43.87-.81,1.33-1.42,1.7-3.51,1.99-4.17,2.05-2.11.05-12.19.04-20.29.03-4.33,0-7.88,0-8.84,0h-.52s-.47-.2-.47-.2c-2.35-.99-2.32-2.56-2.04-21.79.14-9.6.34-22.75.17-38.39.17-70.99.41-159.63.66-246.57.21-77.42.43-153.5.58-214.52l.09-33.84c.01-4.94.02-9.27.03-12.96h35.94c-.02,27.34,0,90.95.04,161.94ZM57.79,1298.61c-4.7,0-8.5-3.81-8.5-8.5s3.81-8.5,8.5-8.5,8.5,3.81,8.5,8.5-3.81,8.5-8.5,8.5ZM818.09,1274.73l-.25.41c-.53.7-1.33,1.67-2.1,2.31l-.61.51-.79.07c-.49.04-1.7.04-5.14.01-1.97-.01-4.47-.03-7.44-.03-14.27-.14-39.14-.21-63.18-.27-45.52-.12-75.58-.23-78.5-.59l-1.08-.14-.64-.89c-1.9-2.66-3.52-8.94-1.45-13.36,1.22-2.61,3.55-4.17,6.55-4.39h.16c2.94-.03,17.56-.02,36.07-.01,25.77.02,57.52.04,73.38-.03.25-68.8.56-165.52.76-236.35.29-103.64.53-207.79.71-309.87h43.56c-.11,29.26.24,98.63.63,176.5,1.31,263.44,1.53,381.7-.65,386.12ZM1029.97,2535.53c-4.7,0-8.5-3.81-8.5-8.5s3.81-8.5,8.5-8.5,8.5,3.81,8.5,8.5-3.81,8.5-8.5,8.5ZM1374.59,1895.9c-18.4,33.63-45.87,61.84-81.64,83.86-48.83,30.05-111.43,46.76-176.28,47.04-.55,0-1.11,0-1.66,0-64.42,0-127.23-16.24-177.06-45.81-33.7-17.93-61.57-38.46-82.84-61l-1.12-1.19.64-1.51c1.01-2.37,6.25-19.37,12.33-39.06,19.95-64.69,30.65-98.15,33.75-101.54l.41-.45.57-.21c1.89-.7,3.83-.53,5.6.49,6.88,3.94,10.47,21,13.29,36.68.44,2.42.78,4.33,1.03,5.38l.05.25c3.38,24.96,14.45,51.36,33.83,80.7,26.14,39.47,64.73,72.49,103.23,88.32,39.96,15.16,80.31,19.35,116.63,12.09,33.79-6.75,63.66-23.13,86.38-47.37,29.57-37.19,45.18-90.51,45.13-154.22,2-73.25-24.27-131.82-73.95-164.98-24.9-16.62-55.17-26.03-87.53-27.2-33.77-1.21-68.66,6.12-103.72,21.81l-.3.11c-4.87,1.47-9.46,2.86-14.66,3.24h-.13c-1.34.04-2.65-.56-3.5-1.64-.82-1.04-1.12-2.4-.8-3.64l.14-.56.38-.44c26.89-31.3,123.75-144.44,201.58-235.34,45.52-53.17,82.56-96.43,94.94-110.88-52.55-.22-128.76-.52-202.54-.8-60.28-.23-118.96-.46-161.79-.64-.5.08-1.01.02-1.49-.2-1.9-.87-2.62-1.19-3.3-34.27-.39-18.7-.64-45.22-.77-81.07-.23-66.07,0-150.38.23-231.92.26-93.51.51-182.69-.11-217.81h45.51c-1.46,92.48-2.26,184.98-2.38,277.49-.12,89.58.39,179.14,1.53,268.7,28.08,1.26,51.05,1.77,66.55,2.01,117.72,1.8,151.72-7.42,171.84-13.38,57.06-16.9,101.42-52.08,139.61-110.7l.16-.25.21-.2c1.95-1.85,4.29-3.83,7.31-4.01h.14s.14,0,.14,0c.79.04,2.68.41,3.1,2.92l.06.32c1.44,9.51-6.65,56.22-13.85,95.85l-.03.15c-1.38,5.6-1.96,11.49-2.53,17.19-.67,6.72-1.36,13.68-3.35,20.4l-.08.23c-2.18,5.4-79.43,95.27-188.32,221.65-42.39,49.2-79.74,92.54-92.72,108.02,31.79-7.67,69.16-14.98,109.14-14.05,51.25.21,103.08,19.38,142.15,52.6,41.43,35.22,65,82.68,66.37,133.66,3.17,46.37-5.42,88.5-25.51,125.21ZM1998.9,1302.44c-4.7,0-8.5-3.81-8.5-8.5s3.81-8.5,8.5-8.5,8.5,3.81,8.5,8.5-3.81,8.5-8.5,8.5Z"/>
  <path d="M3008,638.13c-360.07,0-651.97,291.9-651.97,651.97s291.9,651.97,651.97,651.97,651.97-291.9,651.97-651.97-291.9-651.97-651.97-651.97ZM3355.51,816.4c.29-.34.55-.66.81-.97.24-.3.58-.56,1.01-.8,2.74,2.63,5.21,4.91,7.4,6.83,2.19,1.93,4.08,3.57,5.71,4.92l20.89,17.32c3.05,2.53,5.76,4.62,8.14,6.24,2.36,1.63,3.96,2.78,4.79,3.46.74.62,1.04,1.37.86,2.27-.23.71-.9,1.86-1.97,3.43-1.08,1.57-2.1,3.28-3.05,5.13-.76,1.32-1.45,2.64-2.08,3.96-.63,1.3-1.32,2.97-2.08,4.98-.45-.15-.93-.32-1.45-.53-.53-.2-1-.47-1.4-.81-.75-.62-1.04-1.38-.87-2.27.64-2.44,1.1-4.61,1.37-6.51.25-1.9.22-3.65-.12-5.25-.33-1.59-1.03-3.12-2.07-4.55-1.04-1.45-2.48-2.92-4.31-4.44l-13.55-11.24-20.34,24.55,14.36,11.91c1.29,1.08,2.6,1.27,3.96.63,1.35-.67,3.17-2.05,5.49-4.15.52-.48,1.02-.66,1.49-.56.49.12,1,.4,1.54.85.2.17.51.44.92.85.41.41.7.72.84.95-1.43,1.46-3.05,3.17-4.87,5.16-1.82,1.98-3.32,3.68-4.5,5.11-1.02,1.22-2.19,2.69-3.5,4.41-1.31,1.71-2.73,3.72-4.28,5.99-.31-.04-.7-.23-1.17-.56-.47-.32-.81-.58-1.02-.75-1.22-1.01-1.47-2.02-.74-3.02,1.73-2.92,2.71-5.04,2.97-6.39.25-1.33-.2-2.48-1.35-3.44l-14.38-11.91-18.91,22.81c-1.19,1.43-1.09,3.11.27,5.04s4.16,4.65,8.38,8.15l4.28,3.55c2.03,1.68,3.96,2.84,5.82,3.45,1.84.61,3.7.88,5.61.8,1.9-.1,3.82-.46,5.72-1.1,1.91-.66,3.96-1.46,6.12-2.41.6-.31,1.27-.15,2.02.46.33.28.65.73.97,1.33.3.6.62,1.19.92,1.79-.59.44-1.16.82-1.73,1.15-.57.34-1.11.69-1.64,1.05-.96.46-1.89,1.05-2.83,1.76s-1.74,1.26-2.39,1.63c-.7.57-1.48,1.21-2.35,1.92-.88.7-1.72,1.38-2.54,2.02-.82.63-1.56,1.18-2.25,1.66-.67.47-1.13.77-1.37.93-.72.31-1.48.14-2.3-.54-.55-.45-1.29-1.14-2.26-2.05-.97-.9-2.02-1.87-3.19-2.9-1.15-1.02-2.3-2.07-3.48-3.14-1.17-1.09-2.2-1.99-3.09-2.73l-23.11-19.18c-1.97-1.63-4.28-3.45-6.9-5.47-2.63-2.01-5.01-3.79-7.17-5.34.09-.39.31-.81.68-1.25.36-.43.63-.76.8-.97.85-1.03,1.63-1.27,2.37-.78,2.97,1.67,5.24,2.7,6.82,3.09,1.57.38,2.91-.1,4.04-1.46l42.31-51.02c.58-.67.93-1.32,1.09-1.93.17-.62.08-1.31-.24-2.09-.32-.79-.84-1.67-1.56-2.68-.72-1-1.68-2.23-2.88-3.68-.51-.76-.34-1.65.5-2.68ZM3382.21,1351.81c.78,6.47-5.94,29.63-9.51,35.1-4.18,6.4-23.73,7.96-30.36,12.94l-11.65,19.39-13.85-3.51,1.98,72.78c.67,12.47,4.55,26.36,4.98,38.59.06,1.68.55,8.03-1.54,8.46l-19.63-14.69c-3.4.67-17.15,15.12-19.47,12.7.7-10.24,3.59-20.16,4.82-30.33,3.58-29.65,1.98-60.91,3.14-90.82-4.41-4.37-7.65,1.53-10.98,2.76-4.74,1.75-7.72-.73-11.34-3.43l-.56-36.03,20.84-4.09c2.21-1.35,2.29-6.45,1.94-8.83l-63.16-102.34c-1.26-5.05,9.85-12.35,10.66-17.57-1.93-7.03-15.98-20.9-15.58-27.45.22-3.62,8.36-23.22,10.5-27.2,1.04-1.93,1.79-3.91,3.65-5.26h24.26c.24-9.53-9.97-33.48-4.01-40.89,2.62-3.26,14.05-5.11,17.33-8.68,4.13-4.48,9.14-22.24,12.57-29.03,1.89-3.75,5.03-11.21,10.01-10.38,2.74.46,21.97,15.38,24.55,18.13,6.05,6.42,4.27,25.48,6,34.61,1.99,10.51,20.83,15.67,22.5,21.07,2.06,6.68-3.2,21.45-4.61,28.57.41,2.37,15.62,1.92,18.42,3.67,2.52,7.87,7.85,19.53,5.97,27.78-1.25,5.48-16.4,21.65-15.72,25.82,6.75,6.72,31.26,21.04,32.24,30.2.68,6.35-14.02,28.56-17.15,36.44-.7,1.76-2.02,4.06-2.09,5.9-.21,5.95,13.85,17.34,14.84,25.62ZM3115.44,1397.7l-5.17-1.73-.44-11.95,102.57,1.92.3,11.76h-97.26ZM3129.63,1405.7v145.76c-3.29.29-6.59.96-9.88.93l-1.84-146.69h11.72ZM3067.24,1449.39c-1.73.23-.93-2.25-.98-3.45-.21-4.95.24-9.96.04-14.91-1.83-45.74-2.99-91.82-1.04-137.63.11-2.47.06-4.95.02-7.43,1.38-1.99,2.76-3.98,4.14-5.97l-.24,67.84c.24,33.94.23,67.8-1.94,101.55ZM3036.5,1350.8l.81-24.42c.98-1.42,1.96-2.83,2.94-4.25l-.77,11.92c1.93,12.04.81,24.44.99,36.64.56,37.18.03,71.82-.99,108.86-.19,6.58,1.22,35.82-.44,39.18-.2.41-1.16,1.21-1.49.97-.45-1.82-.92-3.48-1.05-5.4-3.67-52.96,2.89-110.11,0-163.51ZM3045.24,1525.93c5.2-.6,21.76-.26,22.98,6.18.52,2.72,1.24,10.37-.51,12.33-5.08,5.69-27.29,3.95-34.17.56l-.5-15.42c.85-1.28,10.14-3.4,12.2-3.64ZM3005.97,1356.2l-236.38,13.34,122.84-156.87,5.23-3.68,64.61-16.1-.83,38.45c.72.14,1.96,1.16,2.32,1.16h31.69l26.72-28.74-1.34-26.6,115.79-30.5v21.46l-130.66,188.07ZM2997.81,1364.79c-.01-.07-.11-.09-.13-.15l16.24-.92c-.21,18.17-.03,36.34-.1,54.51-.05,13.1-.02,26.39,0,39.53.06,29.23-.15,58.48-.05,87.7,3.66,0,7.33.02,10.99.03-.49,4.31-.99,8.63-1.48,12.94-6.27.65-13.28,1.03-20.89.88-4.83-.1-9.38-.39-13.63-.82.33-4.67.67-9.33,1-14,2.72,0,5.44-.02,8.16-.02l-.12-179.68ZM2976.1,1474.69c-.72-36.25.59-72.59.05-108.84l3.94-.22-.98,148.13c-1.22,1.61-1.79-.02-1.98-1.46-1.14-8.97.28-21.26.04-30.76-.06-2.34-1.03-4.51-1.07-6.85ZM2828.03,1537.63l-.43-12.95,12.88,1v-8.91c4.38-.63.21,7.63,2.92,9.46l23.83,3.41v-16.34c.99-.83,1.98-1.65,2.97-2.48v18.32c12.86,1.79,25.71,3.57,38.56,5.36v-19h4c.19,6.53.39,13.06.58,19.59,7.45.89,14.9,1.77,22.35,2.66.02-6.75.05-13.5.07-20.25h5v21c6,.67,12,1.33,18,2v15c-43.57-5.96-87.15-11.92-130.73-17.87ZM2909.7,1778.06l-6.15,1.38c-4.69-3.78-13.26-13.42-18.85-21.38l9.92-2.49c3.88,7.16,10.54,17.12,15.09,22.5ZM2818.67,1575.67l-78.21,31.79c-2.07.9-14.6-7.83-13.9-8.51l80.76-30.67c1.69-14.88.43-30.26,1.46-45.09.8-11.64.27-15.26,11.66-19.04,16.68-5.55,39.97-10.34,57.47-13.84,6.88-1.38,20.84-5.6,12.35,6.41-17.29,4.5-34.81,8.47-51.99,13.37-3.44.98-16.21,4.02-17.68,6.09-5.73,8.04,2.65,55.7-1.91,59.5ZM2740.89,1491.96c5.8-5.13,44.86-5.52,46.96-8l.96-107.21-.2-.31,13.21-.74c.84,46.49-1.11,93.13-.04,139.61.14,5.87,3.04,12.92-.57,18.34-4.7-1.58-10.85-.45-14.24-4.52v-33.18c-12.43.82-26,1.6-37.73,5.34-2.7,3.28.4,31.03-.88,37.75-.22,1.17-.37,1.96-1.68,2.28l-91.98,18.07c-3.05,1.33-7.87-10.45-7.37-10.94l88.48-16.01c1.22-.4,1.44-1.15,1.66-2.3,1.57-8.36-2.84-32.62,3.43-38.17ZM2756.82,1338.41c-2.31-10.94-15.53-20.68-19.36-31.22.94-12.91,10.86-33.05,8.84-45.42-1.13-6.98-14.58-12.32-18.53-18,2.46-9.27,3.39-18.53,15.61-16.23-2.28-10.07-10.44-22.07-2.43-31.65,3.9-4.65,8.71-1.85,13.42-4.63,2.99-14.72,5.92-30.8,15.39-42.8,2.16-.41,12.72,7.15,14.09,9.41,3.11,5.16,3.69,20.22,6.07,22.65,2.46,2.51,8.82.4,11.15,4.7,5.11,9.43-2.07,32.38-.79,34.39,5.17,4.88,24.79,15.35,25.27,22.35.41,6.01-9.29,24.32-8.75,26.59,6.85,4.24,11.93,9.46,9.02,18.17-18.4,24.34-38.64,47.38-57.08,71.66-2.83,3.72-12.7,15.87-13.29,19.45-.29,1.74-.56,3.41,1.46,4.07l24.12,1.13-1,89.14-6.33-3.91-10.02,10.84-2.3-1.64,3.79-82.54c-10.64,4.09-18.23-7.05-25.47-13.36,4.98-12.62,20.09-29.03,17.11-43.16ZM2825.59,1456.33l15.03.33v8.58h-.17s0,28.22,0,28.22l-1.48,1.46-1.48-1.46v-28.23l-18.77-1.98v-4.86h0l.64-57.32c.26-.07.49-.16.8-.22,5.81-1.07,14,.69,20.47-.86v8.42l-16.04.88,1,47.03ZM2816,1472.7l2.67.38v24.35c0,.6-2.04,1.91-2.97,1.48-.06-7.61-.76-15.61-.48-23.42l.79-2.79ZM2841.45,1393.7v-20.25l2.97-.17v20.42h-2.97ZM2847.63,1408.04v-8.26l29.48-.9.99,64.88-1.63,2.33-9.27.13v18.32s-2.97,2.48-2.97,2.48v-20.8l-16.6-.69v-8.72l22.54.5v-50.51l-22.54,1.23ZM2870.17,1392.45v-20.61l3.9-.22-.93,23.31c-1.65.84-2.96-1.7-2.96-2.48ZM2895.77,1370.39l4.16-.23c-.47,9.38,1.68,18.42-.05,27.74h24.75v6.89h-22.82s0,54.57,0,54.57h22.81s0,7.54,0,7.54c-9.96-.13-19.91-.26-29.87-.39.02-.89.08-2.58.13-4.69.31-12.05.49-21.61.6-30.04.15-11.75.38-27.04.34-47.25,0-5.8-.04-10.61-.06-14.13ZM2904.83,1477.12c1.35.86,1.66,26.93.11,29.14l-17.95-.42c-.81-8.26,9.36-2.47,10-12.34.53-8.26-3.2-10.17-10.98-9.44l1.49-6.94h17.33ZM2925.68,1368.7l3.86-.22-.77,23.22h-2.35l-.74-23ZM2951.38,1404.78h-18.75s0-7.87,0-7.87h24.2l1.48,1.48v68.83c-1.52.09-3.03.18-4.55.28v39c-1.12-.22-2.25-.43-3.37-.65v-38.63c-5.92-.08-11.84-.15-17.76-.23v-7.65h18.76s0-54.57,0-54.57ZM2950.33,1367.31l3.03-.17v22.34c0,.28-1.15,3.88-2.5,1.5-2.21-7.92-.82-15.68-.53-23.67ZM3014.56,1197.1c-.13,4.19-17.49,19.25-20.52,23.94l-23.13.66c-1.41-.98-.97-17.11-.89-20.13.05-2.15.93-4.15.99-6.3.23-10.19-.82-20.49.87-30.55l-10.02-.91.41-14.63c.86-1.23,26.4-5.9,29.35-5.98,3.4-.09,24.49,3.08,27,4.38,2.26,1.17,2.12,11.36,1.09,13.49-1.26,2.58-5.31,1.76-7.75,1.81l2.62,34.21ZM3137.63,1315.69v8.96h-19.86v-73.39h19.86v7.93h-11.94v56.5h11.94ZM3136.59,1245.37c-3.24-20.24-.64-40.59-.96-61.01.39-.55.77-1.11,1.15-1.66h1.58c.14,4.31,1.16,8.75,1.23,12.62.17,8.77,1.28,43.37-1.51,49.08-.21.43-1.23,1.24-1.49.97ZM3084.17,1501.53c.74-2.4,5.67-1.75,7.71-1.48l2.55,23.69c13.87,3.39,21.98,1.96,17.81,19.85-10.85,3.22-23.99,4.23-33.95-1.73-.11-3.66-.82-9.34,1.04-12.55,1.85-3.19,8.09-3.23,8.59-5.21l-3.75-22.57ZM3103.94,1334.06l-2.04,64.82c-1.67,0-1.88-3.29-1.97-4.45-1.3-16.23.3-34.95.04-51.55-.52-34.74-2.3-70.11-1.08-105,0-.21.08-.4.1-.61,1.66-2.39,3.31-4.78,4.96-7.16v103.94ZM3078.15,1550.44c11.69,3.45,23.08,4.6,34.65,0-.72,4.97,3.03,14.3.08,18.39-4.38,6.1-32.23,5.71-35.24-.57-1.9-3.98.2-13.31.51-17.84ZM3143.63,1259.19v-7.93h19.69v73.39h-19.69v-8.96h12.81v-56.5h-12.81ZM3149.63,1175.3v-28.01l134.4,216.62c.2,2.05-2.29,2.39-3.8,2.84-2.55.75-5.58,1.17-8.66,1.48l-121.94-192.93ZM3202.94,1371.67c-.18,1.48-.79,3.01-1.98,1.46l-1.04-99.92,4.07,6.81c.31,12.42,1.05,24.69.96,37.2-.01,2.34-1.04,4.51-1.07,6.85-.2,15.78.9,31.94-.94,47.6ZM3175.68,1232.65l-1.46,103.36-1.98,1.46-1.24-112.17c-.53-1.13-1.16-2.22-1.72-3.34,2.13,3.56,4.26,7.12,6.39,10.68ZM3184.94,1500.57c1.43,2.56,2.93,5.56,4.69,8.16v17.9l-26.8-48.51c-2.32,5.61-20.1,36.2-27.21,50.55v-18.65l4.1-6.46,17.65-34.91-4.77-10.99-16.97-29.72v-17.66l26.22,48.05,2.66-2.29c6.74-15.78,18.68-32.05,25.13-47.62v19.15c-1.4,2.04-2.64,4.38-3.7,6.32-6.24,11.35-11.9,23.19-17.58,34.83,5.07,10.83,10.78,21.43,16.59,31.86ZM3159.46,1405.7h4.84v15.46c0,.34-.93,1.66-1.03,2.93-.38,5.11.06,10.31-.96,15.39-2.45.16-1.71.25-1.95-1.5-.26-1.91-.9-4.6-1.02-5.93-.74-8.42.14-17.59.11-26.36ZM3135.63,1537.56l21.82-1.44,2.92-37.2c1.85.39,1.8,1.95,2,3.44.27,2.03.83,5.28.96,6.96.66,8.48-.49,17.69,0,26.25l26.31-2.7v14.64l-30.26,1.94,137.66,54.96.99,1.47-17.09,5.75-142.8-59.27c-.83-.33-1.66-.38-2.5-.55v-14.24ZM3199.04,1546.89l-3.41.22v-141.4h10.2l-.91,123.42.92,2.04c3.12.27,16.7-.09,17.9-2.29l.99-193.37c2.54-1.03,2.71,5.14,2.84,6.56,4.39,50.52-.12,102.97.17,153.34.03,4.77-.86,32.53.88,33.79l17.95-2.14.7-174.68,10.36,17.32c1.25-.13,2.49-.26,3.74-.39l-.13,172.05-37.49,3.6,131.71,43.58c-4.82,2.31-13.98,9.79-19.04,9.24l-137.37-50.89ZM3231.8,818.14c1.21-4.02,2.95-8.07,5.23-12.15l21.31-38.4c.92-1.62,1.04-3.03.41-4.26-.64-1.2-2.4-2.87-5.27-4.97-.76-.62-.78-1.59-.05-2.9.13-.24.3-.54.52-.93.21-.38.51-.72.87-1.03,2.15,1.39,4.44,2.84,6.88,4.37,2.44,1.5,5.41,3.22,8.87,5.15,2.71,1.49,5.55,3.01,8.54,4.51,3,1.52,5.69,2.84,8.1,3.97-.14.42-.29.84-.47,1.25-.18.4-.33.72-.46.95-.72,1.32-1.55,1.82-2.49,1.49-3.38-1.37-5.82-2.01-7.32-1.95-1.5.07-2.68.89-3.54,2.43l-19.92,35.86c-4.44,8.02-6.35,14.93-5.68,20.75.65,5.82,4.61,10.73,11.86,14.76,7.4,4.12,13.75,5.09,19.04,2.93,5.27-2.16,10.36-7.64,15.23-16.43l19.73-35.51c.86-1.54.94-2.96.25-4.25-.7-1.29-2.44-2.96-5.23-5.03-.8-.75-.86-1.73-.18-2.97.14-.22.31-.52.58-.89.24-.36.52-.72.81-1.06,2.11,1.48,4.08,2.78,5.94,3.91,1.85,1.13,3.85,2.29,6.01,3.5,2.47,1.37,4.7,2.55,6.65,3.54,1.97,1,3.96,1.89,5.94,2.7-.14.42-.29.84-.47,1.25-.18.41-.33.73-.46.96-.68,1.24-1.55,1.7-2.61,1.43-3.03-1.28-5.28-1.85-6.77-1.71-1.48.13-2.67.96-3.52,2.51l-21.06,37.93c-2.44,4.4-5.15,8.17-8.11,11.32s-6.32,5.42-10.07,6.82c-3.75,1.39-7.94,1.77-12.57,1.11-4.63-.65-9.84-2.59-15.62-5.8-6.88-3.82-11.97-7.66-15.31-11.53-3.36-3.89-5.43-7.78-6.23-11.71-.8-3.93-.59-7.89.64-11.89ZM3119.46,798.07c.13-.42.23-.77.32-1.02.25-.83.61-1.38,1-1.62.41-.24.82-.34,1.28-.29,3.19.47,5.4.47,6.65.03,1.25-.43,2.13-1.45,2.64-3.05l20.25-63.81c.42-1.35.31-2.52-.35-3.52-.64-.99-2.46-2.19-5.45-3.6-.92-.58-1.17-1.53-.75-2.88.05-.16.12-.36.19-.57.06-.21.18-.43.33-.65l.45-.97c1.15.46,2.27.88,3.35,1.27,1.08.39,2.16.79,3.22,1.23,1.83.67,3.67,1.32,5.56,1.97,1.88.64,3.4,1.15,4.58,1.52,2.43.77,3.99,1.4,4.7,1.84.68.45,1.23,1.06,1.63,1.85l25.07,66.25,14.2-44.77c.59-1.85.38-3.36-.64-4.5-1.02-1.17-3.07-2.46-6.13-3.9-1-.6-1.3-1.57-.87-2.92.09-.25.19-.58.32-1.02.14-.42.34-.81.64-1.17,2.03.91,4.02,1.74,6.03,2.46,1.98.72,4.33,1.51,7.02,2.36s5.02,1.54,6.97,2.07c1.97.55,3.95.98,5.96,1.35-.04.45-.12.89-.2,1.32-.1.44-.18.77-.26,1.03-.46,1.43-1.21,2.07-2.28,1.91-2.91-.45-4.98-.47-6.23-.03s-2.15,1.49-2.68,3.17l-23.42,73.78c-.35-.03-.94-.15-1.76-.35-.82-.22-1.35-.36-1.6-.45-.59-.19-1.17-.53-1.75-1.03-.59-.51-1.1-1.34-1.56-2.51l-29.69-78.83-17.29,54.49c-.26.83-.43,1.55-.48,2.13-.04.59.15,1.15.57,1.71.43.55,1.13,1.15,2.09,1.77.95.63,2.26,1.39,3.93,2.29.39.22.68.52.88.91.21.39.16,1.04-.14,1.97-.19.6-.49,1.27-.94,2.06-2.04-.83-3.96-1.61-5.78-2.32-1.82-.71-3.94-1.46-6.37-2.23-2.44-.77-4.79-1.46-7.07-2.04-2.27-.58-4.36-1.08-6.25-1.5-.06-.39-.03-.8.11-1.21ZM3037.09,785.58c.16-1.31.68-1.96,1.57-1.93,3.41-.19,5.87-.54,7.41-1.05,1.52-.51,2.4-1.65,2.63-3.4l8.39-65.74c.12-.88.08-1.61-.12-2.23-.19-.6-.63-1.14-1.32-1.63-.7-.49-1.61-.97-2.75-1.42-1.14-.45-2.61-.99-4.4-1.57-.84-.37-1.17-1.22-1.02-2.53.06-.44.12-.85.17-1.25s.19-.8.42-1.21c3.73.74,7.03,1.34,9.9,1.8,2.87.45,5.37.81,7.47,1.08l26.9,3.44c3.95.49,7.34.8,10.22.9,2.88.1,4.83.21,5.89.35.96.13,1.62.61,1.95,1.45.18.74.23,2.05.16,3.96-.06,1.9,0,3.89.18,5.95.08,1.53.2,3.02.37,4.46.17,1.44.48,3.21.93,5.32-.47.12-.97.23-1.51.33-.55.12-1.08.13-1.62.07-.96-.13-1.6-.61-1.93-1.45-.76-2.4-1.54-4.49-2.34-6.24s-1.77-3.19-2.91-4.38c-1.13-1.16-2.54-2.07-4.19-2.73-1.65-.65-3.66-1.13-6.03-1.44l-17.45-2.23-4.03,31.63,18.5,2.36c1.68.22,2.89-.32,3.68-1.6.79-1.27,1.59-3.43,2.41-6.43.19-.69.51-1.1.98-1.27.46-.16,1.04-.21,1.74-.12.27.04.68.12,1.25.23.56.12.97.24,1.21.36-.43,1.98-.88,4.31-1.35,6.96s-.83,4.89-1.06,6.72c-.2,1.58-.39,3.45-.58,5.6-.2,2.16-.32,4.62-.41,7.35-.27.15-.7.2-1.28.18-.58-.03-1-.06-1.26-.09-1.57-.21-2.32-.92-2.26-2.17-.11-3.39-.4-5.71-.91-6.98-.51-1.26-1.5-1.99-2.99-2.18l-18.52-2.36-3.75,29.39c-.23,1.85.74,3.21,2.94,4.12s6.01,1.7,11.44,2.39l5.52.7c2.63.34,4.87.27,6.77-.2,1.88-.48,3.59-1.25,5.16-2.34,1.56-1.09,2.99-2.43,4.25-3.99,1.27-1.57,2.57-3.34,3.88-5.31.35-.58,1-.81,1.95-.68.45.06.95.26,1.53.6.58.34,1.16.68,1.74,1.02-.26.68-.56,1.31-.85,1.9-.29.58-.57,1.17-.82,1.76-.57.91-1.04,1.91-1.46,3.02-.39,1.1-.78,1.99-1.13,2.66-.29.85-.61,1.81-.97,2.87-.35,1.07-.71,2.09-1.04,3.07-.35.98-.68,1.86-1.02,2.61-.31.76-.53,1.27-.65,1.52-.44.65-1.18.91-2.24.79-.7-.1-1.7-.27-3.01-.53-1.3-.24-2.71-.49-4.24-.74-1.52-.23-3.07-.5-4.63-.79-1.56-.29-2.92-.51-4.05-.65l-29.79-3.79c-2.54-.33-5.46-.64-8.77-.92-3.28-.28-6.26-.51-8.91-.66-.14-.37-.16-.84-.09-1.42.07-.57.13-.98.17-1.25ZM3057.64,914.8c6.56,1.51,25.06,29.88,29.92,36.41,7.36-6.7,13.88-14.69,21.28-21.29,3.12-2.78,12.43-11.03,15.85-11.94,8.11-2.15,25.94,12.94,32.2,18.37,4.68-4.98,20.42-25.42,25.98-26.55,6.87-1.4,30.28,12.55,38.36,14.72,3.1,7.56,10.37,18.36,7.68,26.45-1.3,3.93-18.26,29.04-21.6,32.86-3.41,3.91-5.25,4.57-10.58,3.81-7.24-1.04-20.86-8.7-25.99-8.7-4.87,0-11.46,4.97-16.34,5.98,2.9,9.4,11.84,19.59,9.68,29.97-1.09,5.26-10,16.31-13.67,20.99-4.94,6.31-15.42,20.03-23.31,21.26-17.2,2.68-38.72-7.83-54.9-12.81.85,6.81,4.22,13.01,2.74,20.08-1.14,5.41-14.57,22.1-20.3,23.27-10.64,2.16-21.26.38-31.95.23,2.85,11.35,10.64,16.69-1.69,24.56-9.69,6.18-19.8,5.96-20.2,20.9l-20.57.95c-.88-10.69-16.39-21.33-10.9-31.93,2.21-4.26,12.75-11.72,11.62-15.75-.54-1.94-15.95-15.87-19.06-20.63-6.31-9.66-4.96-12.53.21-22.34,1.7-3.23,14.79-23.95,16.45-25.15,5.1-3.67,22.38-.9,29.28-2.92-5.9-9.83-12.85-19.07-17.3-29.73-4.82-11.55-5.13-12.68-.69-24.4,2.03-5.37,10.06-24.41,13.38-27.72,2.78-2.78,27.39-12.3,32.82-14.22,6.06-2.14,15.4-6.15,21.6-4.72ZM2935.27,704.04c1.33.04,2.83.05,4.51.05,1.68.02,3.38,0,5.1-.04,1.72-.04,3.4-.07,5.04-.1,1.62-.03,3.06-.08,4.3-.14,2.91-.14,6.07-.36,9.51-.65,3.42-.3,6.49-.6,9.22-.91.2.43.3.86.33,1.31.02.43.03.79.05,1.05.07,1.59-.42,2.45-1.46,2.59-2.81.41-4.78.94-5.89,1.61s-1.65,1.53-1.6,2.58c.04.63.2,1.32.51,2.11l21.8,51.27,18.03-52.26c.38-1.16.57-2.1.53-2.81-.06-1.23-.67-2.09-1.84-2.62-1.19-.52-3.18-.88-6.02-1.1-1.07-.03-1.64-.85-1.72-2.43,0-.18,0-.38.04-.61.03-.21.04-.46.04-.72l.08-1.06c.8.05,1.76.09,2.93.13,1.13.03,2.4.04,3.77.02s2.73-.05,4.09-.07c1.38-.02,2.63-.06,3.78-.11,2.56-.12,5-.28,7.32-.48,2.32-.21,4.34-.47,6-.82l.18,1.05c.11.26.16.52.18.79.02.25.02.48.02.65.09,1.67-.4,2.58-1.46,2.72-2.8.4-4.78.96-5.95,1.67-1.15.72-2.05,1.93-2.68,3.63l-28.92,79.54c-.44.1-.79.18-1.04.18-.27,0-.59.02-.94.04-.7.03-1.21-.08-1.52-.33-.33-.24-.68-.85-1.08-1.8l-34.6-75.03c-.29-.6-.61-1.15-.93-1.61-.33-.47-.81-.87-1.46-1.2-.62-.32-1.46-.56-2.48-.74-1.04-.17-2.38-.3-4.06-.4-1.15-.03-1.77-.93-1.86-2.7,0-.26-.02-.63-.05-1.12-.02-.49.05-.87.21-1.14ZM2830.79,727.37c1.12-.23,2.26-.43,3.39-.62,1.89-.38,3.83-.78,5.76-1.21,1.94-.43,3.52-.79,4.71-1.08,2.5-.6,4.14-.89,4.97-.86.82.02,1.61.26,2.35.72l55.84,43.56-11.12-45.62c-.46-1.9-1.42-3.06-2.9-3.51-1.46-.47-3.89-.51-7.25-.14-1.18,0-1.93-.67-2.27-2.04-.06-.25-.16-.6-.25-1.03-.11-.43-.13-.88-.06-1.36,2.21-.26,4.35-.6,6.43-1.02,2.09-.42,4.48-.96,7.23-1.63,2.74-.67,5.1-1.28,7.04-1.85,1.95-.57,3.88-1.23,5.79-1.97.2.42.36.83.51,1.25.15.42.25.76.31,1.01.35,1.46.04,2.4-.94,2.82-2.73,1.13-4.51,2.19-5.35,3.21-.84,1.04-1.05,2.4-.63,4.11l18.34,75.2c-.32.16-.89.37-1.69.62-.81.23-1.33.38-1.59.45-.61.14-1.28.15-2.04.01s-1.64-.57-2.64-1.33l-66.33-51.91,13.54,55.53c.21.86.45,1.55.72,2.08.25.53.72.91,1.37,1.17.65.24,1.54.38,2.7.43,1.14.03,2.66.01,4.54-.09.45-.01.86.08,1.23.31.38.22.67.81.91,1.75.14.6.23,1.35.27,2.25-2.19.36-4.24.69-6.15,1.03-1.91.34-4.12.8-6.6,1.41s-4.85,1.25-7.09,1.93c-2.25.69-4.28,1.34-6.12,1.97-.25-.29-.44-.66-.54-1.08-.12-.43-.2-.78-.25-1.04-.21-.85-.21-1.49,0-1.9.21-.42.53-.72.94-.92,2.96-1.25,4.85-2.41,5.7-3.43.83-1.02,1.06-2.35.65-3.98l-15.86-65.03c-.33-1.37-1.04-2.3-2.11-2.81s-3.26-.59-6.53-.26c-1.09,0-1.81-.69-2.14-2.07-.04-.16-.1-.36-.15-.57-.05-.21-.07-.46-.04-.75l-.12-1.05c1.22-.21,2.38-.43,3.52-.65ZM2745.12,763.27c2.71-1.11,5.02-2.09,6.95-2.96l24.74-11.13c3.62-1.62,6.68-3.14,9.19-4.56,2.51-1.41,4.26-2.33,5.21-2.77.88-.4,1.69-.32,2.42.21.53.54,1.26,1.63,2.2,3.29.95,1.66,2.02,3.32,3.26,4.99.85,1.27,1.73,2.47,2.63,3.6.9,1.14,2.09,2.5,3.56,4.05-.32.35-.7.71-1.1,1.09-.41.38-.86.67-1.35.89-.89.4-1.69.33-2.41-.21-1.9-1.66-3.66-3.02-5.25-4.1-1.59-1.07-3.18-1.81-4.77-2.21-1.57-.41-3.25-.45-5-.15-1.75.31-3.7.95-5.89,1.91l-16.05,7.22,13.07,29.09,17.02-7.65c1.53-.68,2.29-1.78,2.3-3.28,0-1.5-.43-3.75-1.3-6.76-.2-.67-.15-1.21.16-1.58.31-.38.79-.72,1.45-1.01.23-.11.62-.26,1.17-.46.54-.2.95-.3,1.23-.33.66,1.92,1.49,4.13,2.47,6.64.99,2.51,1.86,4.61,2.61,6.3.66,1.46,1.46,3.14,2.42,5.08.98,1.94,2.14,4.1,3.5,6.48-.17.27-.51.54-1.01.82s-.88.46-1.12.58c-1.45.65-2.46.43-3.05-.66-1.86-2.84-3.34-4.67-4.42-5.47-1.08-.82-2.32-.92-3.69-.3l-17.02,7.65,12.15,27.03c.76,1.69,2.3,2.34,4.66,1.96,2.33-.38,6.01-1.67,11-3.92l5.07-2.29c2.42-1.08,4.31-2.31,5.66-3.71,1.37-1.38,2.42-2.94,3.18-4.68.76-1.75,1.27-3.62,1.54-5.63.25-1.99.43-4.18.54-6.54,0-.67.42-1.21,1.31-1.61.4-.18.94-.26,1.61-.27.66-.02,1.35-.03,2.01-.04.14.71.22,1.4.27,2.05.06.66.13,1.3.21,1.94,0,1.07.11,2.18.33,3.33.23,1.16.37,2.11.42,2.86.2.87.42,1.87.67,2.95.25,1.11.49,2.15.7,3.17s.38,1.93.51,2.75c.12.8.2,1.36.22,1.63-.03.79-.53,1.4-1.49,1.84-.64.29-1.59.66-2.83,1.12-1.24.47-2.58.99-4,1.59-1.43.59-2.89,1.17-4.38,1.74s-2.74,1.09-3.79,1.55l-27.4,12.32c-2.33,1.04-4.98,2.31-7.95,3.78-2.96,1.48-5.62,2.84-7.95,4.09-.31-.25-.59-.64-.82-1.16-.23-.53-.4-.91-.51-1.15-.55-1.21-.43-2.02.33-2.47,2.81-1.93,4.73-3.53,5.77-4.76,1.04-1.24,1.2-2.67.48-4.28l-27.17-60.46c-.35-.8-.78-1.41-1.25-1.83-.49-.42-1.15-.64-1.99-.7-.84-.05-1.88.02-3.09.22-1.21.21-2.73.53-4.57.97-.92.12-1.64-.42-2.19-1.63-.18-.41-.35-.78-.51-1.14s-.25-.78-.27-1.25c3.55-1.31,6.7-2.52,9.38-3.65ZM2691.02,794.46c2.77-1.56,5.23-3.01,7.41-4.37,2.1-1.3,4.48-2.85,7.15-4.66,2.67-1.81,5.16-3.53,7.47-5.17.29.33.61.7.93,1.13.31.42.55.75.67.98.66,1.05.68,1.92.07,2.61-1.44,1.19-2.54,2.23-3.31,3.07-.78.84-1.3,1.61-1.54,2.28-.25.68-.29,1.29-.11,1.85s.52,1.22.99,1.96l34.91,56.34c.46.75.91,1.34,1.32,1.75.41.42.98.67,1.7.74.72.07,1.63-.06,2.73-.37,1.09-.32,2.5-.85,4.22-1.6.84-.32,1.61.09,2.3,1.21.15.23.33.57.57,1.05.24.47.43.87.54,1.23-2.49,1.34-5.15,2.8-7.95,4.38-2.81,1.58-5.26,3.02-7.35,4.33-2.19,1.35-4.59,2.91-7.21,4.7-2.64,1.78-5.1,3.5-7.4,5.13-.35-.21-.64-.54-.93-.98-.28-.45-.48-.79-.63-1.01-.74-1.2-.76-2.07-.06-2.61,1.44-1.21,2.55-2.23,3.32-3.07.78-.85,1.27-1.6,1.48-2.26.22-.64.25-1.26.1-1.85-.15-.57-.46-1.25-.92-1.99l-34.92-56.34c-.46-.74-.92-1.32-1.37-1.72-.45-.39-1.02-.63-1.7-.74-.68-.08-1.57.02-2.68.34-1.1.33-2.5.85-4.22,1.6-.9.25-1.66-.16-2.31-1.22-.15-.22-.34-.56-.63-1.02-.27-.45-.45-.9-.54-1.36,2.49-1.35,5.13-2.78,7.9-4.36ZM2634.24,836.06c4.37-3.58,8.34-6.13,11.89-7.63,3.56-1.5,6.82-2.2,9.75-2.1,2.94.1,5.56.83,7.87,2.18,2.31,1.36,4.34,3.1,6.07,5.2,3.24,3.96,4.53,8.17,3.88,12.65s-2.51,8.9-5.58,13.23l.25.3c3.09-2.08,6.19-3.68,9.31-4.81s6.14-1.73,9.07-1.79c2.91-.07,5.64.45,8.2,1.54,2.56,1.1,4.79,2.81,6.69,5.13,2.57,3.13,4.25,6.38,5.01,9.76.77,3.36.74,6.73-.1,10.09-.83,3.37-2.44,6.72-4.83,10.06-2.4,3.34-5.48,6.55-9.22,9.63l-7.67,6.3-4.29-5.53c1.53-.74,3.08-1.7,4.64-2.99,4.71-3.86,7.39-7.75,8.07-11.67.66-3.91-.86-8.12-4.55-12.62-2.01-2.45-4.2-4.25-6.56-5.38-2.36-1.14-4.76-1.73-7.17-1.74-2.4-.02-4.82.45-7.23,1.4-2.42.96-4.69,2.3-6.8,4.05l-1.75,1.44-4.18-5.39c1.52-1.49,2.82-2.98,3.66-4.45,1.21-2.13,1.87-4.24,1.93-6.3.08-2.06-.28-4.03-1.06-5.89-.78-1.86-1.86-3.61-3.2-5.25-1.28-1.56-2.75-2.84-4.41-3.8-1.66-.98-3.46-1.53-5.38-1.67-1.94-.12-4.02.26-6.28,1.13-1.28.5-2.61,1.24-3.96,2.11l-4.2-5.42,2.13-1.75ZM2613.71,852.67c2.66-2.01,4.79-3.67,6.43-5.02l7.33-6.03,52.73,67.97-5.39,4.43c-1.22,1.01-2.59,2.15-4.1,3.45-1.5,1.3-2.88,2.57-4.13,3.82-.76.75-1.54,1.46-2.32,2.17-.8.72-1.56,1.37-2.32,1.99l-.68-.63c-.23-.15-.42-.31-.57-.48-.14-.18-.25-.32-.37-.45-.62-.75-.91-1.34-.86-1.79.04-.42.2-.82.49-1.17,2.1-2.3,3.4-4.17,3.89-5.59.49-1.43.17-2.82-.96-4.18l-42.06-51.22c-1.12-1.37-2.36-1.96-3.72-1.83-1.37.16-3.52,1.08-6.44,2.81-.65.32-1.21.33-1.66.07-.44-.26-.89-.66-1.34-1.22-.12-.14-.23-.28-.37-.45-.14-.17-.23-.35-.27-.55-.23-.27-.39-.54-.49-.8,2.16-1.54,4.55-3.32,7.19-5.31ZM2597.84,1293.47c.59-9.17,17.11-13.2,18.57-18.09,2.28-7.63-5.41-24.54-3.59-33.32l24.62-14.22c.55-10.55-8.63-29.45-5.76-39.21,1.09-3.68,14.32-12.11,17.48-16.19,6.21-8,10.66-28.1,16.19-38.31,1.86-3.43,3.16-5.18,7.63-4.54l15.1,52.75c4.91,8.45,23.41,12.21,25.11,19.42.49,2.07.56,3.34.5,5.46-.18,6.12-4.74,28.2-3.27,31.92,7.22,9.84,19.59,14.05,27.61,23,1.87,13.11-10.61,36.24-8.48,48.06.88,4.86,15.03,19.48,18.61,24.99,5,7.68,2.44,9.56-.96,17.51-4.05,9.46-19.11,31.28-18.71,39.71.18,3.79,3.08,9.58,2.9,12.98-.14,2.67-9.3,11.85-11.77,13.82-9.03,7.22-18.96.71-29.73,2.46l2.99,72.79c.58,5.73,4.92,22.7,3.81,26.61-.19.65-1.13,2.01-1.88,1.2l-17.15-9.33-15.03,11.77-2.29-1.67c-1.32-4.1,3.01-17.43,3.69-22.73,3.09-24.15-.02-50.26,1.1-74.66-6.67-.29-10.66,8.5-17.34,8.98-2.97.21-16.27-4.48-18.28-6.53-3.32-3.39-1.97-20.69-5.56-27.13-4.09-7.35-19.11-9.86-25.62-14.98-1.16-1.52-7.5-22.01-7.49-24.23.09-12.57,19-27.6,19.8-35.73.81-8.22-13.3-25.14-12.83-32.52ZM2561.49,1460.77l1.64,10.09c-9.53-1.99-21.77-6.04-27.09-8.85l-1.17-6.2c6.74,2.05,18.53,4.23,26.63,4.96ZM2397,1297.1c-3.87,0-7-3.13-7-7s3.13-7,7-7,7,3.13,7,7-3.13,7-7,7ZM2455.24,1520.69c-1.24.17-2.43.32-3.57.47-1.15.14-2.19.23-3.1.29-.93.06-1.53.09-1.85.1-.87-.11-1.5-.71-1.88-1.82-.26-.74-.58-1.82-.97-3.23-.38-1.42-.84-2.94-1.36-4.56-.51-1.63-1.01-3.29-1.49-4.98s-.93-3.12-1.36-4.33l-10.92-31.35c-.92-2.68-2.05-5.71-3.4-9.12-1.35-3.4-2.58-6.46-3.73-9.15.3-.31.75-.58,1.36-.78.62-.21,1.04-.36,1.33-.46,1.39-.49,2.3-.28,2.71.61,1.87,3.27,3.44,5.54,4.71,6.8,1.28,1.27,2.84,1.57,4.69.93l69.81-24.22c.94-.32,1.65-.72,2.17-1.21.51-.48.83-1.19.98-2.12s.17-2.07.06-3.42c-.12-1.36-.32-3.08-.62-5.14-.05-1.02.62-1.77,2.03-2.25.46-.17.89-.32,1.32-.47.42-.14.9-.2,1.43-.18,1.09,4.05,2.13,7.62,3.1,10.68.96,3.08,1.83,5.71,2.6,7.93l9.85,28.31c1.45,4.15,2.83,7.67,4.14,10.56,1.34,2.9,2.18,4.9,2.57,6.01.35,1.02.2,1.89-.48,2.65-.65.53-1.94,1.24-3.88,2.12-1.94.87-3.9,1.91-5.87,3.12-1.47.83-2.9,1.68-4.26,2.57-1.36.88-2.98,2.06-4.85,3.54-.36-.39-.72-.84-1.09-1.32-.38-.5-.65-1.02-.85-1.56-.35-1.02-.2-1.9.48-2.66,2.03-1.94,3.72-3.74,5.07-5.39,1.35-1.66,2.33-3.34,2.94-5.04.6-1.71.82-3.54.65-5.5-.16-1.95-.66-4.17-1.52-6.66l-6.41-18.37-33.59,11.64,6.79,19.48c.62,1.75,1.75,2.7,3.42,2.84,1.66.15,4.19-.12,7.61-.78.77-.18,1.37-.07,1.76.31s.71.94.98,1.68c.09.27.21.72.38,1.34.16.62.23,1.07.24,1.39-2.19.56-4.75,1.25-7.62,2.1-2.88.85-5.29,1.6-7.26,2.29-1.67.58-3.62,1.31-5.87,2.19-2.26.88-4.76,1.96-7.54,3.23-.28-.21-.56-.61-.81-1.19-.25-.58-.43-1.01-.53-1.28-.58-1.66-.22-2.76,1.04-3.3,3.34-1.78,5.52-3.23,6.53-4.36,1.02-1.13,1.25-2.47.7-4.04l-6.78-19.47-31.22,10.83c-1.94.67-2.83,2.32-2.65,4.94.18,2.63,1.27,6.79,3.25,12.5l2.02,5.79c.96,2.77,2.14,4.96,3.54,6.59,1.41,1.63,3.04,2.95,4.9,3.96,1.85,1.01,3.89,1.75,6.07,2.23,2.21.48,4.61.88,7.22,1.21.75.05,1.3.59,1.65,1.6.17.46.22,1.05.17,1.8-.07.73-.12,1.48-.17,2.23-.8.07-1.58.1-2.31.1s-1.44.02-2.16.06c-1.18-.11-2.42-.09-3.74.05-1.3.15-2.36.21-3.2.19-1,.15-2.11.29-3.36.48ZM2484.01,1591.47c-.68.38-1.49.74-2.45,1.05-1.24-2.54-2.86-5.68-4.87-9.43-1.99-3.74-4.24-7.76-6.73-12.07-1.77-3.04-3.53-5.94-5.29-8.69-1.78-2.75-3.45-5.31-5.03-7.66.24-.36.58-.67,1.01-.91.42-.25.76-.45,1.02-.6,1.45-.83,2.53-.83,3.23,0,1.38,1.58,2.52,2.83,3.46,3.76.93.92,1.77,1.57,2.48,1.94.74.37,1.45.51,2.12.39.67-.11,1.44-.4,2.29-.89l64.06-36.76c1.7-.97,2.59-2.29,2.65-3.96.06-1.67-.71-4.36-2.29-8.06-.08-.52-.02-1.01.18-1.46.21-.45.72-.91,1.57-1.4.34-.21.73-.42,1.15-.67.42-.24.82-.35,1.17-.33,1.19,2.46,2.62,5.27,4.29,8.43,1.65,3.15,3.18,5.95,4.61,8.4l5.31,9.18-49.97,29.1-22.6,12.97c-1.97,1.12-2.87,2.74-2.72,4.85.14,2.11,1.1,5.29,2.89,9.56.51,1.28,0,2.35-1.53,3.24ZM2509.62,1631.26c.17.47.18.93.03,1.35-.16.43-.62.86-1.39,1.3-.34.2-.72.42-1.15.65-.42.25-.9.41-1.42.49-.46-.98-1.15-2.32-2.09-4.03-.94-1.72-1.89-3.51-2.85-5.37-.97-1.87-1.96-3.71-2.96-5.56-1.02-1.84-1.87-3.35-2.55-4.53-1.02-1.77-1.31-3.96-.84-6.59.47-2.64,1.44-5.51,2.93-8.61l17.83-36.24,6.63-3.82c1.2,1.87,2.45,3.57,3.77,4.98,1.74,1.81,3.66,3.12,5.79,3.94,2.1.81,4.42,1.03,6.92.65,2.52-.36,5.35-1.46,8.51-3.26,5.28-3.04,8.72-6.7,10.32-11,1.46-3.89.61-8.7-2.31-14.33l6.49-3.74,2.42,4.17c2.6,4.48,4.37,8.81,5.3,12.99.95,4.18,1.12,8.1.51,11.77-.6,3.65-1.92,6.95-3.97,9.87-2.06,2.92-4.79,5.36-8.2,7.32-4.52,2.59-9.42,3.57-14.72,2.96-5.3-.62-10.28-2.79-14.94-6.53l-17.77,36.68c-1.34,2.79-1.86,5.43-1.55,7.9.28,2.47.71,4.68,1.26,6.6ZM2587.66,1726.11c-.59.52-1.31,1.03-2.19,1.52-1.93-2.46-3.85-4.87-5.75-7.23-1.9-2.36-3.72-4.52-5.48-6.49-.92-1.03-2.03-2.25-3.37-3.67s-2.72-2.87-4.16-4.34c-1.45-1.47-2.85-2.93-4.22-4.39s-2.54-2.68-3.52-3.62c.16-.41.42-.77.8-1.09.35-.32.65-.59.88-.78.66-.59,1.28-.89,1.84-.93s1,.06,1.34.28c2.05,1.57,3.73,2.6,5.02,3.1,1.29.49,2.42.31,3.38-.53.44-.39.9-.99,1.37-1.79l10.65-19.7-7.39-8.29,5.21-5.21,5.85,6.57,16.61-31.16-33.38,12.34,6.91,7.76-5.21,5.21-9.07-10.19-20.45,7.82c-.57.1-1.1.31-1.6.62-.51.32-.87.58-1.09.77-.81.71-1.14,1.68-.97,2.9.16,1.21,1.1,3.15,2.8,5.81.76,1.15.53,2.28-.73,3.37-.52.46-1.21.94-2.08,1.44-1.6-2.09-3.32-4.29-5.16-6.57-1.85-2.29-3.7-4.48-5.59-6.6-1.3-1.46-2.71-2.95-4.21-4.49s-3.23-3.19-5.21-4.97c.17-.41.43-.77.8-1.1.36-.31.66-.58.88-.77,1.42-1.23,2.57-1.4,3.49-.52,2.46,1.87,4.38,3.08,5.77,3.6,1.4.54,2.98.54,4.76.02l87.2-29.61c1.78-.53,3.19-.2,4.23.97.32.36.62.75.92,1.14.28.4.59.85.92,1.36l-42.25,84.08c-.71,1.41-.8,2.98-.24,4.71.55,1.72,1.37,3.41,2.43,5.06.76,1.3.51,2.49-.74,3.59ZM2621.12,1755.77c-1.4-1.06-2.99-2.25-4.77-3.54-1.79-1.31-3.51-2.46-5.2-3.5-1-.63-1.96-1.28-2.93-1.95s-1.88-1.34-2.73-1.99l.52-.9c.1-.29.22-.54.37-.72.16-.2.28-.37.41-.53.65-.86,1.23-1.32,1.71-1.38.49-.06.96,0,1.4.23,3.03,1.68,5.38,2.61,7.05,2.77,1.66.16,3.1-.54,4.3-2.08l45.12-58.23c1.2-1.55,1.54-3.05,1.04-4.47s-2.04-3.51-4.64-6.22c-.51-.62-.67-1.21-.5-1.76.18-.54.5-1.12.99-1.75.12-.16.25-.32.4-.52.16-.2.32-.34.53-.44.23-.31.49-.55.74-.72,2.21,1.93,4.74,4.07,7.57,6.41,2.82,2.33,5.18,4.22,7.05,5.64l5.87,4.47-56.69,76.96-7.61-5.79ZM2690.41,1762.51c-.55,3.04-1.85,5.86-3.89,8.5-2.75,3.56-5.87,6.18-9.34,7.86-3.47,1.67-7.13,2.49-10.99,2.44-3.86-.04-7.91-.94-12.13-2.68-4.22-1.73-8.47-4.23-12.75-7.48l-7.82-5.95,4.51-6.12c1.1,1.24,2.34,2.47,3.89,3.65,5.37,4.08,10.26,6,14.68,5.72,4.42-.27,8.61-2.97,12.58-8.08,2.15-2.79,3.56-5.61,4.21-8.44.65-2.83.68-5.55.1-8.14-.58-2.61-1.7-5.08-3.33-7.44-1.63-2.35-3.67-4.45-6.08-6.29l-2.99-2.27,4.43-6.01c2.51,1.74,4.9,3.06,7.12,3.72,2.62.76,5.06.93,7.31.5,2.26-.44,4.3-1.33,6.13-2.64,1.83-1.33,3.46-2.91,4.89-4.78,1.39-1.78,2.4-3.69,3.05-5.72s.8-4.1.46-6.21c-.35-2.11-1.28-4.27-2.79-6.46-1.39-2.02-3.39-4-5.87-5.97l4.39-5.96,5.45,4.15c4.99,3.8,8.73,7.42,11.26,10.88,2.51,3.46,4.08,6.78,4.72,9.96.62,3.19.48,6.19-.41,9.02s-2.27,5.45-4.13,7.85c-3.48,4.49-7.74,6.95-12.76,7.37-5.03.42-10.28-.46-15.76-2.66l-.27.34c3.04,2.8,5.56,5.74,7.58,8.81,2,3.08,3.41,6.17,4.2,9.3.8,3.13.92,6.22.35,9.24ZM2775.53,1743.31c-.23.55-.41.95-.55,1.21-.64,1.21-1.47,1.72-2.47,1.52-4.02-1.42-6.88-2.04-8.56-1.88-1.7.18-3.01,1.12-3.93,2.84l-33.54,63.32c-.96,1.82-.43,3.64,1.6,5.46,2.02,1.83,5.73,4.13,11.13,6.92l4.95,2.57c2.18,1.13,4.2,1.88,6.05,2.24,1.86.35,3.7.28,5.51-.21,1.81-.5,3.69-1.37,5.63-2.62,1.93-1.26,4.04-2.9,6.34-4.91.62-.56,1.46-.56,2.5-.02.44.22.89.62,1.36,1.2.48.58.95,1.15,1.42,1.73-2.16,2.4-4.38,5.09-6.67,8.04-2.29,2.95-4.46,5.86-6.54,8.76-.64.99-1.27,1.48-1.88,1.5-.62,0-1.19-.12-1.71-.39-.7-.36-1.66-.92-2.86-1.65-1.23-.74-2.56-1.51-4.01-2.32s-2.92-1.65-4.4-2.53c-1.47-.88-2.77-1.6-3.91-2.19l-29.61-15.36c-2.53-1.31-5.46-2.73-8.78-4.3s-6.34-2.93-9.04-4.11c0-.44.16-.93.46-1.49s.51-.98.64-1.24c.69-1.3,1.48-1.76,2.41-1.4,3.62,1.11,6.33,1.69,8.13,1.74s3.16-.79,4.07-2.51l34.43-65c.45-.87.75-1.62.88-2.28.12-.65.04-1.33-.25-2.04-.29-.69-.91-1.48-1.83-2.34-.94-.87-2.25-1.91-3.94-3.12-.72-.71-.77-1.67-.14-2.89.15-.25.35-.63.62-1.16.26-.52.61-.95,1.02-1.29,2.69,1.61,5.57,3.3,8.62,5.05,3.06,1.76,5.82,3.26,8.25,4.52,1.21.63,2.63,1.34,4.21,2.11,1.59.76,3.24,1.56,4.96,2.4,1.71.83,3.45,1.65,5.19,2.44,1.75.79,3.33,1.5,4.78,2.14-.15.48-.33.99-.57,1.52ZM2842.28,1777.57c-.77.24-1.33.64-1.67,1.19-.37.56-.72,1.28-1.05,2.21l-25.14,69.02c-.33.92-.54,1.71-.62,2.35-.08.64.1,1.3.54,1.97.43.67,1.17,1.38,2.21,2.11,1.04.73,2.48,1.58,4.33,2.55.85.51,1.04,1.46.52,2.82-.09.28-.27.68-.52,1.22s-.47.97-.7,1.31c-2.89-1.24-6.01-2.53-9.33-3.86-3.31-1.34-6.28-2.46-8.86-3.38-2.7-.96-5.72-1.95-9.09-2.99-3.38-1.04-6.59-2-9.61-2.87-.05-.43.03-.92.22-1.47.2-.55.35-.97.46-1.23.53-1.47,1.28-2.09,2.24-1.86,2.04.41,3.69.65,4.96.75,1.28.09,2.29,0,3-.26.73-.25,1.28-.65,1.69-1.19.4-.53.76-1.25,1.09-2.18l25.16-69.02c.33-.92.51-1.71.55-2.37.03-.66-.15-1.33-.53-1.97-.39-.66-1.1-1.36-2.15-2.09-1.04-.73-2.47-1.58-4.31-2.54-.83-.61-1.01-1.55-.54-2.83.1-.28.25-.69.45-1.25.2-.55.48-1.02.83-1.42,2.89,1.24,5.98,2.52,9.25,3.83,3.29,1.33,6.26,2.45,8.94,3.41,2.6.92,5.61,1.9,9.03,2.97,3.42,1.05,6.64,2.02,9.66,2.88-.06.5-.2,1.03-.34,1.59-.16.57-.27,1-.37,1.27-.48,1.29-1.23,1.89-2.26,1.85-2.03-.41-3.69-.66-4.97-.75-1.27-.09-2.29,0-3.06.23ZM2934.16,1815.62c-.62.08-1.22.06-1.8-.06-1.05-.21-1.74-.79-2.04-1.76-.63-2.71-1.33-5.07-2.06-7.05-.75-1.99-1.71-3.68-2.87-5.06-1.17-1.38-2.64-2.49-4.42-3.35-1.78-.85-3.97-1.54-6.56-2.06l-19.21-3.84-7.17,34.57,20.36,4.06c1.83.37,3.23-.12,4.22-1.47.99-1.34,2.05-3.64,3.23-6.88.25-.75.64-1.19,1.18-1.34.53-.14,1.18-.14,1.94.02.3.06.75.18,1.38.34.61.18,1.04.34,1.32.5-.65,2.16-1.35,4.68-2.1,7.57-.74,2.88-1.33,5.33-1.74,7.33-.37,1.73-.74,3.77-1.12,6.13-.39,2.36-.75,5.06-1.07,8.08-.33.13-.81.16-1.46.09-.63-.09-1.08-.16-1.39-.21-1.73-.35-2.5-1.2-2.31-2.56.17-3.75.03-6.35-.43-7.78-.45-1.43-1.5-2.31-3.13-2.64l-20.35-4.07-6.67,32.13c-.42,2.01.56,3.59,2.92,4.77s6.53,2.35,12.51,3.54l6.05,1.21c2.89.58,5.4.68,7.53.31,2.15-.37,4.12-1.09,5.95-2.18,1.83-1.07,3.52-2.43,5.06-4.06,1.53-1.64,3.12-3.49,4.75-5.56.43-.61,1.17-.8,2.24-.6.49.1,1.04.36,1.65.78s1.23.84,1.84,1.26c-.35.73-.72,1.41-1.08,2.02-.38.62-.74,1.25-1.07,1.88-.7.96-1.33,2.02-1.87,3.2-.56,1.19-1.04,2.14-1.5,2.84-.38.92-.83,1.94-1.31,3.1-.5,1.15-.97,2.25-1.44,3.3-.46,1.05-.92,1.98-1.33,2.8-.43.8-.71,1.34-.86,1.61-.55.69-1.4.92-2.56.68-.76-.15-1.86-.42-3.29-.8-1.43-.39-2.97-.77-4.65-1.15-1.67-.39-3.37-.8-5.08-1.24-1.72-.45-3.2-.79-4.45-1.04l-32.79-6.55c-2.77-.55-6-1.12-9.63-1.7-3.64-.58-6.93-1.06-9.86-1.45-.12-.42-.1-.94.02-1.56.14-.62.23-1.07.29-1.37.29-1.44.93-2.1,1.91-2,3.8.06,6.57-.13,8.32-.58s2.81-1.63,3.21-3.54l14.89-71.86c.21-.95.21-1.77.06-2.45-.16-.67-.6-1.31-1.33-1.9s-1.72-1.19-2.95-1.79-2.81-1.29-4.76-2.07c-.9-.48-1.2-1.44-.9-2.87.09-.48.19-.93.27-1.37.09-.43.27-.86.57-1.31,4.09,1.12,7.71,2.04,10.86,2.77,3.16.73,5.9,1.33,8.2,1.79l29.62,5.92c4.33.87,8.09,1.46,11.27,1.81s5.36.62,6.52.86c1.05.21,1.74.79,2.04,1.75.13.83.08,2.29-.16,4.38-.24,2.1-.34,4.29-.32,6.58-.03,1.69-.03,3.33.05,4.94.06,1.6.25,3.58.57,5.94-.53.1-1.1.18-1.71.25ZM2999.08,1892.59c-2.85-.22-6.41-.42-10.68-.61-4.27-.18-8.92-.29-13.93-.33-3.54-.04-6.95,0-10.25.13-3.29.12-6.37.26-9.22.44-.2-.4-.28-.83-.28-1.32,0-.49.02-.88.03-1.17,0-1.66.57-2.58,1.65-2.76,2.07-.38,3.74-.73,5.03-1.06,1.28-.32,2.28-.7,2.97-1.14.68-.43,1.16-.97,1.42-1.59.24-.63.39-1.44.4-2.41l.97-73.3c.03-1.94-.66-3.37-2.08-4.25-1.41-.89-4.14-1.6-8.15-2.13-.5-.2-.88-.49-1.17-.88-.29-.4-.43-1.08-.41-2.05,0-.39,0-.83.02-1.32,0-.49.1-.88.3-1.17,2.74.21,5.91.41,9.5.6,3.58.18,6.81.27,9.65.3l10.34.09v55.15l-.38,28.09c-.02,2.25.92,3.84,2.82,4.79,1.89.94,5.16,1.72,9.78,2.34,1.37.21,2.04,1.18,2.02,2.94,0,.79-.13,1.67-.33,2.64ZM3048.64,1891.99c0,.49-.11.98-.31,1.46-1.08-.12-2.61-.2-4.57-.26-1.97-.07-4.01-.16-6.11-.26-2.12-.13-4.23-.21-6.34-.28-2.12-.07-3.86-.11-5.23-.12-2.06,0-4.12-.89-6.16-2.61s-4.02-4-5.96-6.86l-21.68-32.6v-8.67c1.98-.11,4.01-.17,5.72-.56,2.48-.57,4.6-1.54,6.39-2.94,1.78-1.4,3.15-3.27,4.13-5.61.96-2.32,1.46-5.3,1.51-8.91.08-6.04-1.33-10.84-4.24-14.38-2.61-3.19-7.19-4.88-13.51-5.25v-7.45l4.83.04c5.21.05,9.88.72,13.98,2.02,4.11,1.3,7.61,3.14,10.48,5.51,2.86,2.36,5.04,5.16,6.51,8.39,1.48,3.23,2.21,6.8,2.16,10.69-.07,5.18-1.74,9.86-4.99,14.08-3.25,4.21-7.69,7.37-13.32,9.47l22.71,33.69c1.74,2.56,3.74,4.33,6.04,5.32,2.29,1,4.42,1.74,6.39,2.25.49.11.88.32,1.16.66.29.35.43.96.42,1.84,0,.39,0,.83,0,1.32ZM3033.46,1571.25c-5.45-4.18-.77-14.76-1.46-20.81,12.05,5.42,25.26,5.22,37.63.99v19.31c-8.04,6.38-28.17,6.65-36.17.51ZM3149.87,1854.63c-.13.71-.21,1.43-.29,2.13-.29,1.14-.48,2.36-.55,3.67-.06,1.29-.18,2.35-.32,3.17-.04,1-.06,2.11-.08,3.36-.04,1.24-.06,2.44-.11,3.58s-.13,2.17-.21,3.08c-.09.91-.16,1.51-.2,1.83-.25.83-.95,1.36-2.13,1.56-.77.15-1.88.29-3.35.47-1.47.17-3.07.37-4.77.62-1.7.26-3.43.5-5.2.72-1.76.21-3.26.44-4.53.66l-32.95,5.95c-2.81.51-6.02,1.16-9.61,1.96-3.6.8-6.86,1.55-9.73,2.27-.25-.35-.44-.83-.56-1.46-.11-.62-.2-1.08-.24-1.37-.25-1.44.09-2.29,1.04-2.57,3.55-1.34,6.06-2.53,7.52-3.58,1.46-1.05,2.02-2.54,1.68-4.46l-12.89-72.11c-.18-.96-.45-1.73-.86-2.29-.4-.58-1.05-1.01-1.95-1.29s-2.04-.47-3.4-.57c-1.37-.11-3.11-.16-5.21-.19-1.01-.11-1.66-.89-1.91-2.32-.08-.48-.17-.94-.24-1.37-.09-.43-.06-.91.04-1.42,4.22-.47,7.94-.94,11.14-1.42,3.21-.48,5.98-.94,8.31-1.35l29.77-5.37c4.35-.79,8.08-1.61,11.17-2.47,3.09-.85,5.21-1.39,6.39-1.59,1.06-.2,1.9.1,2.55.88.43.71.92,2.08,1.49,4.11.56,2.03,1.28,4.1,2.16,6.22.58,1.58,1.19,3.11,1.85,4.56.67,1.47,1.59,3.24,2.76,5.3-.46.28-.96.57-1.5.87-.54.29-1.1.49-1.68.6-1.07.2-1.92-.1-2.57-.87-1.6-2.29-3.12-4.22-4.55-5.79s-2.95-2.79-4.55-3.64c-1.59-.85-3.38-1.34-5.36-1.48-1.97-.14-4.26.03-6.88.5l-19.32,3.49,6.21,34.69,20.47-3.69c1.84-.33,2.97-1.3,3.38-2.91.4-1.61.56-4.14.44-7.58-.04-.79.16-1.35.61-1.68.44-.32,1.04-.56,1.82-.69.28-.06.75-.12,1.4-.18.63-.07,1.11-.08,1.42-.04.2,2.25.5,4.84.87,7.79.38,2.96.75,5.44,1.1,7.45.3,1.73.73,3.76,1.24,6.08.52,2.34,1.18,4.97,2,7.89-.25.24-.69.45-1.31.61-.62.17-1.08.27-1.37.32-1.74.32-2.78-.19-3.12-1.51-1.24-3.54-2.33-5.9-3.29-7.06-.95-1.16-2.26-1.59-3.9-1.3l-20.47,3.69,5.76,32.25c.35,2.01,1.86,3.13,4.5,3.35,2.62.21,6.94-.21,12.95-1.3l6.08-1.1c2.92-.52,5.28-1.35,7.14-2.47,1.84-1.13,3.41-2.53,4.72-4.2s2.37-3.54,3.19-5.62c.83-2.08,1.61-4.38,2.36-6.89.17-.72.78-1.18,1.85-1.38.49-.08,1.09-.04,1.83.12.73.18,1.46.34,2.19.51-.06.8-.15,1.55-.26,2.28ZM3325.7,1804.29c-2.58,1.11-5.45,2.47-8.61,4.04-2.91,1.46-5.98,3.07-9.21,4.84-3.24,1.77-5.91,3.29-8.02,4.57-.62-.79-1.07-1.48-1.39-2.09-.49-.96-.65-1.69-.52-2.2.13-.49.33-.81.6-.95,3.29-2.41,5.27-4.29,5.92-5.64.62-1.35.51-2.9-.36-4.64-.13-.26-.91-1.63-2.29-4.08-1.41-2.47-3.12-5.54-5.13-9.22-2.02-3.67-4.23-7.64-6.65-11.88-2.41-4.25-4.69-8.23-6.84-11.95-2.15-3.73-3.98-6.94-5.52-9.68-1.53-2.71-2.5-4.36-2.88-4.92l4.27,75.82c-.05,1-.12,1.78-.23,2.32-.11.55-.43.95-.96,1.21-.18.09-.44.22-.8.39-.34.19-.62.27-.85.27l-67.16-57.38c.49,1.18,1.52,3.52,3.12,7.02,1.62,3.52,3.42,7.54,5.43,12.09s4.15,9.35,6.41,14.38c2.25,5.03,4.34,9.68,6.26,13.96,1.92,4.27,3.54,7.85,4.82,10.74,1.3,2.9,2.01,4.48,2.15,4.75.39.78.82,1.42,1.28,1.89.46.47,1.07.8,1.82.98.73.17,1.72.15,2.93-.08,1.2-.22,2.82-.62,4.84-1.2,1.05-.3,1.96.28,2.71,1.77.13.26.27.6.42,1.01.16.42.29.86.42,1.35-2.45,1.01-4.74,1.95-6.82,2.83-2.1.88-4.15,1.83-6.17,2.83-1.76.88-3.94,2.04-6.5,3.49-2.58,1.45-4.87,2.78-6.89,4.01-.36-.26-.63-.61-.86-1.04-.21-.44-.39-.79-.53-1.04-.48-.96-.66-1.66-.56-2.1.12-.43.37-.8.76-1.11,2.42-1.96,4.04-3.65,4.89-5.05.83-1.4.94-2.93.34-4.58-.35-.69-1.34-2.85-2.92-6.47-1.61-3.61-3.49-7.9-5.65-12.87-2.17-4.96-4.48-10.23-6.95-15.81-2.48-5.58-4.78-10.75-6.89-15.52-2.13-4.77-3.91-8.76-5.36-11.96-1.45-3.2-2.21-4.88-2.29-5.06-.75-1.48-1.77-2.31-3.07-2.48-1.29-.17-3.71.29-7.23,1.4-1,.4-1.9-.19-2.7-1.76-.13-.26-.3-.61-.52-1.04-.22-.44-.36-.91-.4-1.45,1.18-.48,2.81-1.18,4.88-2.1,2.06-.93,4.17-1.89,6.31-2.9,2.12-1.01,4.13-1.95,6-2.83,1.88-.88,3.21-1.51,4-1.9,1.58-.79,2.84-1.35,3.79-1.65.95-.31,1.73-.51,2.34-.6.61-.09,1.12-.02,1.51.22.39.23.76.49,1.11.75l54.06,46.43-4.41-71.18c-.06-.96.21-1.85.78-2.69.58-.82,2.4-2.01,5.48-3.54.7-.35,1.74-.89,3.08-1.61s2.8-1.5,4.35-2.33c1.57-.84,3.12-1.69,4.67-2.57,1.54-.88,2.86-1.64,3.96-2.3.4.35.7.74.92,1.18.22.43.4.78.53,1.04.7,1.39.64,2.46-.21,3.2-1.63,1.14-2.88,2.1-3.77,2.86-.88.76-1.47,1.47-1.81,2.13s-.46,1.29-.37,1.9c.09.61.3,1.26.66,1.95.09.18.99,1.8,2.7,4.87,1.7,3.07,3.85,6.85,6.44,11.33s5.37,9.37,8.35,14.63c2.98,5.27,5.81,10.26,8.52,14.96,2.69,4.71,5.01,8.8,6.99,12.29,1.96,3.49,3.19,5.59,3.69,6.34.43.87.9,1.53,1.41,1.98.5.47,1.15.76,1.94.92.79.15,1.79.11,3-.11,1.2-.22,2.71-.62,4.51-1.2,1.06-.3,1.96.28,2.71,1.77.31.61.6,1.39.85,2.34-3.16,1.37-6.04,2.61-8.6,3.73ZM3399.4,1750.78c-5.41,4.53-11.26,7.83-17.49,9.87-6.26,2.05-12.49,2.81-18.72,2.3-6.24-.52-12.28-2.25-18.12-5.19-5.85-2.94-11.1-7.17-15.77-12.68-4.41-5.21-7.56-10.93-9.4-17.14-1.86-6.21-2.5-12.48-1.94-18.8.56-6.33,2.31-12.41,5.28-18.26,1.66-3.29,3.79-6.3,6.19-9.13l5.48,5.18c-1.03,1.35-1.92,2.83-2.66,4.44-1.5,3.24-2.27,6.75-2.29,10.52s.73,7.7,2.26,11.77c1.51,4.07,3.95,8.08,7.29,12.02,4.67,5.51,9.54,10.16,14.61,13.94,5.08,3.77,10.08,6.49,15.03,8.14,4.94,1.65,9.73,2.18,14.35,1.55,4.32-.58,8.26-2.41,11.9-5.25l5.51,5.21c-.53.48-.93,1.04-1.49,1.51ZM3411.83,1735.35c-1.79,3.51-4.12,6.67-6.72,9.65l-5.43-5.13c1.38-1.73,2.54-3.56,3.34-5.57,1.4-3.52,2.01-7.24,1.84-11.17-.18-3.93-1.11-7.91-2.81-11.97-1.69-4.04-4.09-7.9-7.18-11.54-4.48-5.28-9.17-9.78-14.03-13.47-4.87-3.69-9.74-6.33-14.63-7.91-4.87-1.58-9.68-2-14.41-1.29-4.47.67-8.65,2.67-12.59,5.79l-5.56-5.26c.68-.64,1.22-1.37,1.95-1.98,5.43-4.53,11.26-7.82,17.51-9.87,6.24-2.05,12.51-2.82,18.78-2.34s12.34,2.22,18.21,5.2,11.12,7.19,15.71,12.62c4.43,5.21,7.58,10.94,9.46,17.19s2.54,12.52,1.94,18.8c-.6,6.29-2.38,12.38-5.38,18.26ZM3479.47,1667.67c-2.75,3.27-5.67,6.87-8.75,10.8-2.19,2.77-4.23,5.51-6.14,8.17-1.9,2.68-3.67,5.2-5.27,7.55-.42-.08-.83-.27-1.22-.58-.38-.29-.69-.54-.93-.71-1.32-1.02-1.72-2-1.2-2.97.96-1.87,1.7-3.4,2.22-4.61.51-1.21.8-2.23.88-3.04s-.06-1.5-.42-2.08c-.35-.59-.92-1.17-1.68-1.77l-58.2-44.87c-1.53-1.19-3.11-1.49-4.68-.92-1.58.59-3.8,2.3-6.67,5.17-.46.27-.93.41-1.43.39-.49,0-1.11-.3-1.89-.9-.31-.24-.66-.51-1.04-.81s-.64-.62-.75-.95c1.86-2.04,3.95-4.41,6.27-7.15s4.37-5.21,6.11-7.45l6.43-8.19,45.8,34.52,20.68,15.95c1.78,1.37,3.62,1.58,5.54.65,1.91-.94,4.52-3.05,7.84-6.31,1.01-.97,2.21-.91,3.59.17.62.48,1.25,1.09,1.9,1.85-1.9,2.12-4.23,4.81-6.98,8.08ZM3514.15,1624.66c-1.26,1.51-2.58,3.07-3.95,4.67-1.38,1.6-2.73,3.21-4.09,4.84-1.33,1.63-2.42,2.98-3.27,4.06-1.27,1.62-3.21,2.72-5.85,3.29-2.62.58-5.66.77-9.12.58l-37.17-2.35-8.36-6.21c.87-1.35,1.66-2.69,2.26-4.01,1.05-2.29,1.55-4.56,1.52-6.81-.03-2.26-.69-4.46-1.97-6.63s-3.36-4.36-6.23-6.56c-4.79-3.7-9.5-5.48-14.1-5.3-3.95.13-7.88,2.49-11.81,6.81l-6.04-4.48,2.42-3.08c3.2-4.09,6.58-7.36,10.13-9.82,3.55-2.47,7.14-4.12,10.8-4.96,3.63-.85,7.21-.88,10.7-.11s6.79,2.35,9.89,4.75c4.09,3.16,6.85,7.29,8.25,12.4,1.4,5.11,1.22,10.51-.53,16.22l40.86,2.33c3.11.17,5.76-.35,7.95-1.57,2.2-1.21,4.09-2.44,5.69-3.69.37-.32.79-.5,1.25-.52.45-.02,1.03.23,1.72.77.31.23.65.5,1.04.8s.71.67.99,1.13c-.75.78-1.74,1.93-2.99,3.45ZM3542.21,1573.79c-1.87,3.07-3.44,5.8-4.77,8.2-1.37,2.48-2.83,5.31-4.4,8.47-1.56,3.16-3.02,6.16-4.37,8.99-.43-.02-.92-.16-1.43-.44-.53-.28-.91-.49-1.16-.62-1.38-.74-1.88-1.57-1.49-2.47.73-1.94,1.24-3.53,1.52-4.77.29-1.23.36-2.23.21-2.97-.15-.75-.46-1.37-.92-1.84-.47-.47-1.13-.94-1.99-1.41l-64.79-34.88c-.86-.47-1.61-.76-2.27-.89-.66-.13-1.35-.06-2.05.23-.72.28-1.52.88-2.43,1.78-.88.91-1.95,2.2-3.19,3.87-.74.71-1.71.75-2.92.1-.25-.15-.63-.35-1.16-.62-.51-.28-.94-.62-1.28-1.03,1.69-2.66,3.44-5.49,5.26-8.51,1.84-3.02,3.43-5.77,4.79-8.26,1.32-2.4,2.78-5.21,4.38-8.41s3.06-6.22,4.4-9.06c.47.16.98.34,1.52.58.54.23.94.43,1.19.57,1.21.65,1.71,1.47,1.49,2.47-.73,1.94-1.24,3.53-1.53,4.77-.29,1.23-.36,2.25-.24,3.03.14.8.43,1.41.92,1.84.5.43,1.17.88,2.03,1.34l64.79,34.89c.86.46,1.61.78,2.24.95.63.18,1.32.1,2.05-.22.74-.32,1.56-.94,2.45-1.85.89-.92,1.95-2.21,3.2-3.87.65-.76,1.61-.8,2.91-.11.25.14.63.38,1.13.7.49.31.89.62,1.19.89-1.68,2.65-3.46,5.51-5.3,8.56ZM3592.13,1460.79c-.27.89-.47,1.46-.56,1.75-.25.63-.66,1.26-1.25,1.88-.6.62-1.55,1.16-2.87,1.62l-89.18,29.44,59.82,21.43c.92.33,1.7.54,2.35.62s1.3-.11,1.92-.56c.64-.45,1.34-1.18,2.08-2.22.74-1.03,1.65-2.45,2.73-4.24.25-.43.61-.74,1.05-.95.44-.21,1.16-.13,2.18.23.65.23,1.4.61,2.27,1.12-1.04,2.23-1.99,4.33-2.87,6.3-.89,1.96-1.82,4.28-2.79,6.93-.98,2.68-1.85,5.24-2.6,7.72-.76,2.48-1.42,4.77-1.96,6.85-.45.05-.89,0-1.36-.17-.46-.17-.83-.3-1.11-.4-.91-.32-1.49-.72-1.75-1.17-.26-.46-.34-.93-.26-1.42.65-3.51.77-5.96.34-7.35-.42-1.41-1.5-2.41-3.26-3.05l-70.07-25.1c-1.47-.53-2.78-.44-3.92.23-1.13.68-2.56,2.65-4.28,5.87-.66,1.01-1.76,1.24-3.24.71-.17-.06-.37-.14-.61-.22-.23-.08-.47-.21-.71-.4l-1.05-.54c.56-1.26,1.08-2.47,1.57-3.64.48-1.18,1-2.35,1.51-3.51.84-1.99,1.66-4,2.45-6.05.82-2.05,1.46-3.72,1.93-5,.98-2.67,1.74-4.37,2.26-5.12.54-.73,1.26-1.31,2.14-1.73l74.94-24.88-49.14-17.6c-2.03-.73-3.71-.56-5.05.52-1.34,1.08-2.88,3.29-4.63,6.61-.71,1.09-1.81,1.37-3.29.85-.26-.1-.63-.23-1.1-.4-.46-.17-.89-.42-1.28-.77,1.11-2.2,2.14-4.38,3.04-6.54.91-2.17,1.88-4.73,2.97-7.67,1.07-2.94,1.96-5.48,2.65-7.62.68-2.15,1.27-4.33,1.77-6.53.5.08.99.17,1.47.28.47.13.85.23,1.12.33,1.56.56,2.25,1.43,2.02,2.6-.64,3.19-.76,5.49-.33,6.89.42,1.4,1.56,2.42,3.41,3.09l80.99,29c-.04.4-.21,1.04-.47,1.94ZM3619,1297.1c-3.86,0-7-3.13-7-7s3.13-7,7-7,7,3.13,7,7-3.13,7-7,7Z"/>
</svg>